<?xml version="1.0" encoding="UTF-8"?><svg id="b" xmlns="http://www.w3.org/2000/svg" width="240" height="48" viewBox="0 0 240 48"><g id="c"><g id="d"><path id="e" d="M13.06,37.65c-1.24.05-2.47.48-3.49,1.18h-.32c.86-3.38,1.24-6.86,1.18-10.35v-3.75c0-2.63-.16-5.31-.48-7.94v-.21l8.06-.75v.27c-.38,3.11-.59,6.27-.59,9.44,0,6.76.97,9.28,4.25,9.28,3.98,0,6.77-4.08,6.77-10.51,0-8.31-3.6-11.26-9.78-11.26-3.06,0-6.61.97-9.68.97C2.96,14,0,10.51,0,4.24h.43c1.56,3.16,4.52,4.18,7.42,4.18,4.19,0,8.17-1.77,12.79-1.77,8.06,0,15.16,5.42,15.16,16.57,0,9.92-5.21,15.98-13.17,15.98-3.82.05-7.31-1.56-9.57-1.56Z"/><path id="f" d="M37.63,28.85c0-6.92,5.38-10.89,5.38-17.7,0-2.04-.27-4.13-.86-6.06h.43c2.85,2.41,5,7.08,5,11.8,0,7.35-2.8,9.71-2.8,13.25,0,2.79,1.72,4.4,4.35,4.4,3.12,0,5.11-2.25,5.11-6.54,0-2.95-.22-8.9-.54-13.94v-.21h7.04v.16c-.11,2.47-.22,6.11-.22,8.63v6.11c0,3.54.22,7.78.48,10.14h-.27c-1.24-.75-2.69-1.13-4.14-1.18-2.53,0-4.3,1.61-8.28,1.61-6.45-.05-10.7-4.18-10.7-10.46Z"/><path id="g" d="M69.12,32.72c2.58,0,4.78,1.39,6.77,1.39,1.88,0,3.12-1.13,3.12-2.74,0-5.47-15.16-.11-15.16-10.67,0-5.04,3.66-7.62,8.49-7.62,3.55,0,6.34,1.39,8.87,1.39,1.51,0,2.63-.48,3.12-1.39h.32c.54,3.54-.97,6.33-4.89,6.33-2.26,0-4.68-1.13-6.34-1.13-1.77,0-2.74.97-2.74,2.41,0,5.36,15.27.11,15.27,10.62,0,5.26-3.87,7.94-8.76,7.94-3.71,0-6.83-1.56-9.78-1.56-1.45-.05-2.85.38-3.98,1.18h-.32c.11-4.24,2.53-6.17,6.02-6.17Z"/><path id="h" d="M87.88,5.95c0-2.25,1.83-3.75,4.57-3.75s4.52,1.5,4.52,3.75-1.83,3.75-4.52,3.75-4.57-1.56-4.57-3.75ZM88.47,13.78h7.85v.21c-.38,3.97-.75,8.04-.75,12.12s.32,8.21.75,12.12v.16h-7.85v-.21c.38-3.97.7-8.04.7-12.12s-.32-8.21-.7-12.12v-.16Z"/><path id="i" d="M108.36,12.44c0,.97.38,1.34,1.67,1.34h6.61v1.39l-.91.11c-5.59.54-7.26,1.82-7.26,5.79v9.22c0,2.63,1.45,4.34,3.55,4.34,1.61,0,3.49-.97,5.05-2.36h.16c-2.26,4.99-5,6.97-8.49,6.97-4.52,0-6.99-2.74-6.99-7.62l.11-11.48c.11-3.38-.65-4.56-3.12-5.63v-.32c4.84-.43,6.77-3.33,9.14-9.55h.59l-.11,7.78Z"/><path id="j" d="M130.19,5.74c5.43,0,13.44,3.22,17.63,3.22,2.1,0,3.49-.8,4.14-1.82h.32c0,6.54-3.17,7.72-6.99,7.72-5.05,0-11.93-2.84-16.88-2.84-3.6,0-5.86,1.88-7.42,4.13h-.32c.05-5.9,3.17-10.4,9.51-10.4h0ZM133.36,26.82c0-3.86-.32-7.72-.65-11.1v-.38l8.28,1.77v.21c-.27,3.11-.38,6.54-.38,9.55,0,3.86.11,7.45.48,11.42v.16h-8.22v-.16c.32-4.02.48-7.62.48-11.48h0Z"/><path id="k" d="M170.77,41.89c-.05,2.04.27,4.13.86,6.11h-.43c-2.85-2.41-5-7.08-5-11.8,0-7.35,2.8-10.57,2.8-14.11,0-2.63-1.77-4.4-4.25-4.4-3.23,0-5.38,2.04-5.38,6.54,0,2.95.22,8.9.54,13.94v.21h-7.1v-.21c.32-10.4.59-23.92.59-26.71,0-4.18-.32-8.42-1.18-11.48h.11c5,3.22,7.42,8.21,7.42,11.75,0,1.29-.22,2.57-.75,3.81,2.58-2.04,4.62-2.68,6.45-2.68,6.4,0,10.64,4.24,10.64,10.62s-5.32,11.75-5.32,18.4h0Z"/><path id="l" d="M201.19,38.83c-1.34-.97-2.9-1.5-4.52-1.56-2.69,0-5,1.98-9.46,1.98-5.91,0-9.89-3.49-9.89-8.69,0-4.67,3.28-7.83,8.06-7.83,3.12,0,6.13,1.18,8.06,4.29v.54c-1.51-.7-3.17-1.02-4.84-1.02-3.06,0-4.57,1.98-4.57,4.29,0,2.68,2.26,3.97,5.11,3.97,3.44,0,5.7-2.25,5.7-6.65v-4.56c0-3.27-1.77-5.09-4.84-5.09-1.51,0-3.44.43-5.11.43-4.19,0-5.91-2.57-5.38-5.9h.11c.59.75,2.04,1.23,3.49,1.23,2.47,0,5.7-1.34,8.92-1.34,5.43,0,9.19,3.75,9.19,9.44v5.9c-.05,3.54.11,7.03.48,10.57h-.54Z"/><path id="m" d="M228.44,23.33c0,6.92-5.38,10.89-5.38,18.56.05,1.77.32,3.54.86,5.26h-.43c-2.85-2.41-5-7.08-5-11.8,0-7.35,2.8-9.71,2.8-13.25,0-2.79-1.72-4.4-4.35-4.4-3.12,0-4.84,2.25-4.84,6.54,0,2.95.22,8.9.54,13.52v.64h-7.31v-.64c.11-2.04.22-5.68.22-8.21v-6.06c0-3.54-.22-7.78-.48-10.14h.32c1.24.75,2.63,1.13,4.09,1.18,2.63,0,4.35-1.61,8.33-1.61,6.4,0,10.64,4.18,10.64,10.4h0Z"/><path id="n" d="M230.92,5.95c0-2.25,1.83-3.75,4.57-3.75s4.52,1.5,4.52,3.75-1.83,3.75-4.52,3.75-4.57-1.56-4.57-3.75ZM231.51,13.78h7.85v.21c-.38,3.97-.75,8.04-.75,12.12s.32,8.21.75,12.12v.16h-7.85v-.21c.38-3.97.7-8.04.7-12.12s-.32-8.21-.7-12.12v-.16Z"/></g></g></svg>